#N canvas 827 239 734 565 12;
#X obj 318 155 unpack f f f f;
#X obj 318 52 netreceive -u 8888;
#X obj 407 436 dac~;
#X obj 318 241 osc~ 440;
#X obj 412 249 sig~;
#X obj 396 326 *~;
#X obj 502 385 *~ 0.1;
#X obj 318 385 *~ 0.5;
#X obj 468 100 expr;
#X connect 0 0 3 0;
#X connect 0 1 4 0;
#X connect 1 0 0 0;
#X connect 3 0 5 0;
#X connect 4 0 5 1;
#X connect 5 0 6 0;
#X connect 5 0 7 0;
#X connect 6 0 2 1;
#X connect 7 0 2 0;
