#N canvas 827 239 734 565 12;
#X obj 432 220 unpack f f f f;
#X obj 432 169 netreceive -u 8888;
#X obj 466 263 print;
#X floatatom 89 805 2 0 0 0 - - - 16;
#X obj 89 839 else/f2s~ 10, f 11;
#X obj 58 873 else/pan2~, f 11;
#X obj 48 928 else/out~;
#X obj 126 805 hsl 128 15 -1 1 0 0 empty empty empty -2 -8 0 10 #e4e4e4 #4d4d4d #373737 0 1;
#X obj 58 745 fm~;
#X floatatom 315 805 2 0 0 0 - - - 16;
#X obj 315 839 else/f2s~ 10, f 11;
#X obj 284 873 else/pan2~, f 11;
#X obj 274 928 else/out~;
#X obj 352 805 hsl 128 15 -1 1 0 0 empty empty empty -2 -8 0 10 #e4e4e4 #4d4d4d #373737 0 1;
#X floatatom 576 805 2 0 0 0 - - - 16;
#X obj 576 839 else/f2s~ 10, f 11;
#X obj 545 873 else/pan2~, f 11;
#X obj 545 928 else/out~;
#X obj 613 805 hsl 128 15 -1 1 0 0 empty empty empty -2 -8 0 10 #e4e4e4 #4d4d4d #373737 0 1;
#X floatatom 831 805 2 0 0 0 - - - 16;
#X obj 831 839 else/f2s~ 10, f 11;
#X obj 800 873 else/pan2~, f 11;
#X obj 790 928 else/out~;
#X obj 868 805 hsl 128 15 -1 1 0 0 empty empty empty -2 -8 0 10 #e4e4e4 #4d4d4d #373737 0 1;
#X obj 255 601 vsl 17 128 -200 200 0 0 empty empty empty 0 -9 0 10 #e4e4e4 #4d4d4d #373737 0 1;
#X obj 68 584 +~;
#X obj 486 601 vsl 17 128 -200 200 0 0 empty empty empty 0 -9 0 10 #e4e4e4 #4d4d4d #373737 0 1;
#X obj 302 584 +~;
#X obj 736 601 vsl 17 128 -200 200 0 0 empty empty empty 0 -9 0 10 #e4e4e4 #4d4d4d #373737 0 1;
#X obj 558 584 +~;
#X obj 938 601 vsl 17 128 -200 200 0 0 empty empty empty 0 -9 0 10 #e4e4e4 #4d4d4d #373737 0 1;
#X obj 791 584 +~;
#X obj 330 664 else/dust~ 5;
#X obj 297 745 pluck~ 50 2500 10000;
#X obj 790 745 phasor~;
#X obj 576 745 osc~;
#X obj 132 753 mct~;
#X connect 0 0 2 0;
#X connect 0 0 25 0;
#X connect 0 1 2 0;
#X connect 0 1 27 0;
#X connect 0 2 2 0;
#X connect 0 2 29 0;
#X connect 0 3 2 0;
#X connect 0 3 31 0;
#X connect 1 0 0 0;
#X connect 3 0 4 0;
#X connect 4 0 5 0;
#X connect 5 0 6 0;
#X connect 5 1 6 1;
#X connect 7 0 3 0;
#X connect 9 0 10 0;
#X connect 10 0 11 0;
#X connect 11 0 12 0;
#X connect 11 1 12 1;
#X connect 13 0 9 0;
#X connect 14 0 15 0;
#X connect 15 0 16 0;
#X connect 16 0 17 0;
#X connect 16 1 17 1;
#X connect 18 0 14 0;
#X connect 19 0 20 0;
#X connect 20 0 21 0;
#X connect 21 0 22 0;
#X connect 21 1 22 1;
#X connect 23 0 19 0;
#X connect 24 0 25 1;
#X connect 25 0 36 0;
#X connect 26 0 27 1;
#X connect 27 0 33 0;
#X connect 28 0 29 1;
#X connect 29 0 35 0;
#X connect 30 0 31 1;
#X connect 31 0 34 0;
#X connect 32 0 33 1;
#X connect 33 0 11 0;
#X connect 34 0 21 0;
#X connect 35 0 16 0;
#X connect 36 0 5 0;
