#N canvas 265 179 157 217 10;
#X obj 163 281 catch~ rain;
#X obj 163 176 throw~ rain;
#X obj 163 219 throw~ rain;
#X obj 163 261 throw~ rain;
#X obj 163 196 cpraingen 60 12 0.2;
#X obj 163 323 hip~ 900;
#X obj 163 154 cpraingen 50 12 0.15;
#X obj 163 238 cpraingen 70 12 0.4;
#X obj 163 302 *~ 0.2;
#X obj 304 353 outlet~;
#X obj 207 84 inlet~;
#X connect 0 0 8 0;
#X connect 4 0 2 0;
#X connect 5 0 9 0;
#X connect 6 0 1 0;
#X connect 7 0 3 0;
#X connect 8 0 5 0;
#X connect 10 1 6 0;
