#N canvas 827 239 1920 989 12;
#X obj 434 388 unpack f f f f;
#X obj 434 319 netreceive -u 8888;
#X floatatom 1299 356 2 0 0 0 - - - 16;
#X obj 1299 390 else/f2s~ 10, f 11;
#X obj 1268 424 else/pan2~, f 11;
#X obj 1268 479 else/out~;
#X obj 1365 363 hsl 128 15 -1 1 0 0 empty empty empty -2 -8 0 10 #e4e4e4 #4d4d4d #373737 0 1;
#X obj 1071 350 cmbcym~;
#X obj 1088 226 ftom;
#X obj 1097 301 int;
#X text 1214 171 Instruments;
#X obj 1153 227 ftom;
#X obj 1169 291 int;
#X obj 1174 340 rds~;
#X obj 1259 288 hihat~;
#X obj 1259 242 int;
#X obj 752 636 tgl 25 0 empty empty empty 17 7 0 10 #e4e4e4 #4d4d4d #373737 0 1;
#X obj 832 677 sig~;
#X obj 666 551 tgl 25 0 empty empty empty 17 7 0 10 #e4e4e4 #4d4d4d #373737 0 1;
#X obj 690 773 else/pluck~ 400 1000 10000;
#X floatatom 847 715 2 0 0 0 - - - 16;
#X obj 800 843 else/f2s~ 10, f 11;
#X obj 769 877 else/pan2~, f 11;
#X obj 812 944 else/out~;
#X obj 909 715 hsl 133 16 -1 1 0 0 empty empty empty -2 -8 0 10 #e4e4e4 #4d4d4d #373737 0 1;
#X obj 607 452 vsl 17 128 -200 200 0 0 empty empty empty 0 -9 0 10 #e4e4e4 #4d4d4d #373737 0 1;
#X obj 1487 174 vsl 17 128 -200 200 0 0 empty empty empty 0 -9 0 10 #e4e4e4 #4d4d4d #373737 0 1;
#X msg 186 1019 stop;
#X msg 61 1019 open test.wav;
#X msg 52 1055 start;
#X obj 404 1087 writesf~ 2, f 11;
#X obj 58 565 makenote 100 250;
#X obj 61 625 pack f f;
#X obj 693 511 clip 200 750;
#X obj 718 593 metro;
#X obj 61 747 else/pan2~, f 11;
#X obj 61 800 else/out~;
#X floatatom 144 662 2 0 0 0 - - - 16;
#X obj 143 695 else/f2s~ 10, f 11;
#X obj 189 662 hsl 128 15 -1 1 0 0 empty empty empty -2 -8 0 10 #e4e4e4 #4d4d4d #373737 0 1;
#X obj 61 662 piano~;
#X obj 393 846 else/out~;
#X obj 393 564 dstring;
#X obj 393 791 else/pan2~, f 11;
#X floatatom 435 737 2 0 0 0 - - - 16;
#X obj 508 791 else/f2s~ 10, f 11;
#X obj 511 744 hsl 128 15 -1 1 0 0 empty empty empty -2 -8 0 10 #e4e4e4 #4d4d4d #373737 0 1;
#X obj 384 1003 +~;
#X obj 500 1003 +~;
#X obj 384 1041 *~ 0.2;
#X obj 496 1044 *~ 0.2;
#X connect 0 0 31 0;
#X connect 0 1 39 0;
#X connect 0 2 42 0;
#X connect 0 3 33 0;
#X connect 1 0 0 0;
#X connect 2 0 3 0;
#X connect 3 0 4 0;
#X connect 3 0 4 1;
#X connect 4 0 5 0;
#X connect 4 1 5 1;
#X connect 6 0 2 0;
#X connect 8 0 9 0;
#X connect 9 0 7 0;
#X connect 11 0 12 0;
#X connect 12 0 13 1;
#X connect 14 0 4 0;
#X connect 15 0 14 0;
#X connect 16 0 17 0;
#X connect 17 0 19 1;
#X connect 18 0 34 0;
#X connect 19 0 22 0;
#X connect 20 0 21 0;
#X connect 21 0 22 0;
#X connect 21 0 22 1;
#X connect 22 0 23 0;
#X connect 22 0 47 0;
#X connect 22 1 23 1;
#X connect 22 1 48 0;
#X connect 24 0 20 0;
#X connect 25 0 19 0;
#X connect 26 0 14 1;
#X connect 27 0 30 0;
#X connect 28 0 30 0;
#X connect 29 0 30 0;
#X connect 31 0 32 0;
#X connect 31 1 32 1;
#X connect 32 0 40 0;
#X connect 33 0 34 1;
#X connect 34 0 16 0;
#X connect 35 0 36 0;
#X connect 35 0 47 0;
#X connect 35 1 36 1;
#X connect 35 1 48 0;
#X connect 37 0 38 0;
#X connect 38 0 35 1;
#X connect 39 0 37 0;
#X connect 40 0 35 0;
#X connect 42 0 43 0;
#X connect 43 0 41 0;
#X connect 43 0 47 0;
#X connect 43 1 41 1;
#X connect 43 1 48 0;
#X connect 44 0 45 0;
#X connect 45 0 43 1;
#X connect 46 0 44 0;
#X connect 47 0 49 0;
#X connect 48 0 50 0;
#X connect 49 0 30 0;
#X connect 50 0 30 1;
